REM DIRINDEX 1\2,1\3,1\4,1\5,1\6
REM DIRNAME folder01,folder02,folder03,folder04,folder05,folder06
TITLE ""
FILE "CD2-21.mp3" MP3
  TRACK 01 AUDIO
    TITLE "6:cjc091_1954"
    INDEX 01 00:00:00
  TRACK 02 AUDIO
    TITLE "0:"
    INDEX 01 00:02:18
  TRACK 03 AUDIO
    TITLE "2:cjc091_1955"
    INDEX 01 00:03:41
  TRACK 04 AUDIO
    TITLE "0:"
    INDEX 01 00:04:62
  TRACK 05 AUDIO
    TITLE "3:cjc091_1956"
    INDEX 01 00:05:07
  TRACK 06 AUDIO
    TITLE "0:"
    INDEX 01 00:06:45
  TRACK 07 AUDIO
    TITLE "4:cjc091_1957"
    INDEX 01 00:06:61
  TRACK 08 AUDIO
    TITLE "4:cjc091_1958"
    INDEX 01 00:09:24
  TRACK 09 AUDIO
    TITLE "4:cjc091_1959"
    INDEX 01 00:10:49
  TRACK 10 AUDIO
    TITLE "0:"
    INDEX 01 00:12:42
  TRACK 11 AUDIO
    TITLE "2:cjc091_1960"
    INDEX 01 00:13:45
  TRACK 12 AUDIO
    TITLE "0:"
    INDEX 01 00:15:09
  TRACK 13 AUDIO
    TITLE "3:cjc091_1961"
    INDEX 01 00:15:27
  TRACK 14 AUDIO
    TITLE "0:"
    INDEX 01 00:16:53
  TRACK 15 AUDIO
    TITLE "4:cjc091_1962"
    INDEX 01 00:16:69
  TRACK 16 AUDIO
    TITLE "4:cjc091_1963"
    INDEX 01 00:19:32
  TRACK 17 AUDIO
    TITLE "4:cjc091_1964"
    INDEX 01 00:22:27
  TRACK 18 AUDIO
    TITLE "0:"
    INDEX 01 00:24:69
  TRACK 19 AUDIO
    TITLE "2:cjc091_1965"
    INDEX 01 00:25:74
  TRACK 20 AUDIO
    TITLE "0:"
    INDEX 01 00:27:32
  TRACK 21 AUDIO
    TITLE "3:cjc091_1966"
    INDEX 01 00:27:55
  TRACK 22 AUDIO
    TITLE "0:"
    INDEX 01 00:29:15
  TRACK 23 AUDIO
    TITLE "4:cjc091_1967"
    INDEX 01 00:29:29
  TRACK 24 AUDIO
    TITLE "4:cjc091_1968"
    INDEX 01 00:32:68
  TRACK 25 AUDIO
    TITLE "4:cjc091_1969"
    INDEX 01 00:36:48
  TRACK 26 AUDIO
    TITLE "0:"
    INDEX 01 00:38:47
  TRACK 27 AUDIO
    TITLE "2:cjc091_1970"
    INDEX 01 00:39:54
  TRACK 28 AUDIO
    TITLE "0:"
    INDEX 01 00:41:24
  TRACK 29 AUDIO
    TITLE "3:cjc091_1971"
    INDEX 01 00:41:38
  TRACK 30 AUDIO
    TITLE "0:"
    INDEX 01 00:42:74
  TRACK 31 AUDIO
    TITLE "4:cjc091_1972"
    INDEX 01 00:43:17
  TRACK 32 AUDIO
    TITLE "4:cjc091_1973"
    INDEX 01 00:45:47
  TRACK 33 AUDIO
    TITLE "4:cjc091_1974"
    INDEX 01 00:47:68
  TRACK 34 AUDIO
    TITLE "4:cjc091_1975"
    INDEX 01 00:49:35
  TRACK 35 AUDIO
    TITLE "0:"
    INDEX 01 00:52:06
  TRACK 36 AUDIO
    TITLE "2:cjc091_1976"
    INDEX 01 00:53:13
  TRACK 37 AUDIO
    TITLE "0:"
    INDEX 01 00:54:32
  TRACK 38 AUDIO
    TITLE "3:cjc091_1977"
    INDEX 01 00:54:56
  TRACK 39 AUDIO
    TITLE "0:"
    INDEX 01 00:56:45
  TRACK 40 AUDIO
    TITLE "4:cjc091_1978"
    INDEX 01 00:56:61
  TRACK 41 AUDIO
    TITLE "4:cjc091_1979"
    INDEX 01 00:59:67
  TRACK 42 AUDIO
    TITLE "4:cjc091_1980"
    INDEX 01 01:02:14
  TRACK 43 AUDIO
    TITLE "4:cjc091_1981"
    INDEX 01 01:04:23
  TRACK 44 AUDIO
    TITLE "0:"
    INDEX 01 01:06:71
  TRACK 45 AUDIO
    TITLE "2:cjc091_1982"
    INDEX 01 01:07:74
  TRACK 46 AUDIO
    TITLE "0:"
    INDEX 01 01:09:71
  TRACK 47 AUDIO
    TITLE "3:cjc091_1983"
    INDEX 01 01:10:00
  TRACK 48 AUDIO
    TITLE "0:"
    INDEX 01 01:11:29
  TRACK 49 AUDIO
    TITLE "4:cjc091_1984"
    INDEX 01 01:11:52
  TRACK 50 AUDIO
    TITLE "4:cjc091_1985"
    INDEX 01 01:13:04
  TRACK 51 AUDIO
    TITLE "4:cjc091_1986"
    INDEX 01 01:14:74
  TRACK 52 AUDIO
    TITLE "4:cjc091_1987"
    INDEX 01 01:16:48
  TRACK 53 AUDIO
    TITLE "4:cjc091_1988"
    INDEX 01 01:20:36
  TRACK 54 AUDIO
    TITLE "0:"
    INDEX 01 01:23:24
  TRACK 55 AUDIO
    TITLE "2:cjc091_1989"
    INDEX 01 01:24:34
  TRACK 56 AUDIO
    TITLE "0:"
    INDEX 01 01:25:60
  TRACK 57 AUDIO
    TITLE "3:cjc091_1990"
    INDEX 01 01:25:74
  TRACK 58 AUDIO
    TITLE "0:"
    INDEX 01 01:27:32
  TRACK 59 AUDIO
    TITLE "4:cjc091_1991"
    INDEX 01 01:27:50
  TRACK 60 AUDIO
    TITLE "4:cjc091_1992"
    INDEX 01 01:31:12
  TRACK 61 AUDIO
    TITLE "0:"
    INDEX 01 01:32:29
  TRACK 62 AUDIO
    TITLE "2:cjc091_1993"
    INDEX 01 01:33:36
  TRACK 63 AUDIO
    TITLE "0:"
    INDEX 01 01:35:14
  TRACK 64 AUDIO
    TITLE "3:cjc091_1994"
    INDEX 01 01:35:26
  TRACK 65 AUDIO
    TITLE "0:"
    INDEX 01 01:36:35
  TRACK 66 AUDIO
    TITLE "4:cjc091_1995"
    INDEX 01 01:36:52
  TRACK 67 AUDIO
    TITLE "4:cjc091_1996"
    INDEX 01 01:39:37
  TRACK 68 AUDIO
    TITLE "4:cjc091_1997"
    INDEX 01 01:42:51
  TRACK 69 AUDIO
    TITLE "4:cjc091_1998"
    INDEX 01 01:44:42
  TRACK 70 AUDIO
    TITLE "0:"
    INDEX 01 01:46:23
  TRACK 71 AUDIO
    TITLE "2:cjc091_1999"
    INDEX 01 01:47:29
  TRACK 72 AUDIO
    TITLE "0:"
    INDEX 01 01:49:18
  TRACK 73 AUDIO
    TITLE "3:cjc091_2000"
    INDEX 01 01:49:39
  TRACK 74 AUDIO
    TITLE "0:"
    INDEX 01 01:50:74
  TRACK 75 AUDIO
    TITLE "4:cjc091_2001"
    INDEX 01 01:51:15
  TRACK 76 AUDIO
    TITLE "4:cjc091_2002"
    INDEX 01 01:53:45
  TRACK 77 AUDIO
    TITLE "4:cjc091_2003"
    INDEX 01 01:55:60
  TRACK 78 AUDIO
    TITLE "4:cjc091_2004"
    INDEX 01 01:57:43
  TRACK 79 AUDIO
    TITLE "0:"
    INDEX 01 01:59:63
  TRACK 80 AUDIO
    TITLE "2:cjc091_2005"
    INDEX 01 02:00:67
  TRACK 81 AUDIO
    TITLE "0:"
    INDEX 01 02:02:18
  TRACK 82 AUDIO
    TITLE "3:cjc091_2006"
    INDEX 01 02:02:38
  TRACK 83 AUDIO
    TITLE "0:"
    INDEX 01 02:04:02
  TRACK 84 AUDIO
    TITLE "4:cjc091_2007"
    INDEX 01 02:04:23
  TRACK 85 AUDIO
    TITLE "4:cjc091_2008"
    INDEX 01 02:07:55
  TRACK 86 AUDIO
    TITLE "4:cjc091_2009"
    INDEX 01 02:11:55
  TRACK 87 AUDIO
    TITLE "0:"
    INDEX 01 02:16:23
